<mxfile host="app.diagrams.net" modified="2020-11-22T20:44:18.720Z" agent="5.0 (Windows)" etag="ppQwuMX5oHhRDxW0SpQp" version="13.10.1" type="github">
  <diagram id="C79akqNqjooOX6AcK2hL" name="Page-1">
    <mxGraphModel dx="2912" dy="2252" grid="1" gridSize="10" guides="1" tooltips="1" connect="1" arrows="1" fold="1" page="1" pageScale="1" pageWidth="850" pageHeight="1100" math="0" shadow="0">
      <root>
        <mxCell id="0" />
        <mxCell id="1" parent="0" />
        <mxCell id="Tuzx2XnApIVHC-Wtf1-6-1" value="" style="rounded=1;whiteSpace=wrap;html=1;" vertex="1" parent="1">
          <mxGeometry x="-620" y="-50" width="860" height="420" as="geometry" />
        </mxCell>
        <mxCell id="Tuzx2XnApIVHC-Wtf1-6-2" value="&lt;font style=&quot;font-size: 18px&quot;&gt;Back-end&lt;/font&gt;" style="text;html=1;resizable=0;autosize=1;align=center;verticalAlign=middle;points=[];fillColor=none;strokeColor=none;rounded=0;" vertex="1" parent="1">
          <mxGeometry x="-235" y="150" width="90" height="20" as="geometry" />
        </mxCell>
        <mxCell id="Tuzx2XnApIVHC-Wtf1-6-3" value="" style="rounded=1;whiteSpace=wrap;html=1;rotation=90;" vertex="1" parent="1">
          <mxGeometry x="-205" y="585" width="260" height="130" as="geometry" />
        </mxCell>
        <mxCell id="Tuzx2XnApIVHC-Wtf1-6-4" value="Mobile client" style="text;html=1;resizable=0;autosize=1;align=center;verticalAlign=middle;points=[];fillColor=none;strokeColor=none;rounded=0;" vertex="1" parent="1">
          <mxGeometry x="-110" y="640" width="80" height="20" as="geometry" />
        </mxCell>
        <mxCell id="Tuzx2XnApIVHC-Wtf1-6-6" value="&lt;div&gt;Firebase database&lt;/div&gt;" style="rounded=1;whiteSpace=wrap;html=1;" vertex="1" parent="1">
          <mxGeometry x="-590" y="220" width="180" height="110" as="geometry" />
        </mxCell>
        <mxCell id="Tuzx2XnApIVHC-Wtf1-6-12" value="" style="endArrow=classic;startArrow=classic;html=1;entryX=0.5;entryY=1;entryDx=0;entryDy=0;exitX=0.5;exitY=1;exitDx=0;exitDy=0;" edge="1" parent="1" source="Tuzx2XnApIVHC-Wtf1-6-3" target="Tuzx2XnApIVHC-Wtf1-6-6">
          <mxGeometry width="50" height="50" relative="1" as="geometry">
            <mxPoint x="360" y="370" as="sourcePoint" />
            <mxPoint x="410" y="320" as="targetPoint" />
            <Array as="points">
              <mxPoint x="-500" y="650" />
            </Array>
          </mxGeometry>
        </mxCell>
        <mxCell id="Tuzx2XnApIVHC-Wtf1-6-13" value="&lt;div&gt;Geolocation&lt;/div&gt;" style="rounded=1;whiteSpace=wrap;html=1;" vertex="1" parent="1">
          <mxGeometry x="-590" width="220" height="100" as="geometry" />
        </mxCell>
        <mxCell id="Tuzx2XnApIVHC-Wtf1-6-14" value="&lt;div&gt;Google Maps API&lt;/div&gt;" style="rounded=1;whiteSpace=wrap;html=1;" vertex="1" parent="1">
          <mxGeometry x="-30" y="220" width="200" height="100" as="geometry" />
        </mxCell>
        <mxCell id="Tuzx2XnApIVHC-Wtf1-6-15" value="&lt;div&gt;Google Places API&lt;/div&gt;" style="rounded=1;whiteSpace=wrap;html=1;" vertex="1" parent="1">
          <mxGeometry x="-40" width="190" height="100" as="geometry" />
        </mxCell>
        <mxCell id="Tuzx2XnApIVHC-Wtf1-6-16" value="" style="endArrow=classic;startArrow=classic;html=1;entryX=0.723;entryY=1.03;entryDx=0;entryDy=0;exitX=0.25;exitY=1;exitDx=0;exitDy=0;entryPerimeter=0;" edge="1" parent="1" source="Tuzx2XnApIVHC-Wtf1-6-3" target="Tuzx2XnApIVHC-Wtf1-6-13">
          <mxGeometry width="50" height="50" relative="1" as="geometry">
            <mxPoint x="360" y="370" as="sourcePoint" />
            <mxPoint x="410" y="320" as="targetPoint" />
            <Array as="points">
              <mxPoint x="-340" y="585" />
              <mxPoint x="-340" y="200" />
            </Array>
          </mxGeometry>
        </mxCell>
        <mxCell id="Tuzx2XnApIVHC-Wtf1-6-17" value="Actor" style="shape=umlActor;verticalLabelPosition=bottom;verticalAlign=top;html=1;outlineConnect=0;" vertex="1" parent="1">
          <mxGeometry x="180" y="555" width="80" height="190" as="geometry" />
        </mxCell>
        <mxCell id="Tuzx2XnApIVHC-Wtf1-6-20" value="" style="endArrow=classic;startArrow=classic;html=1;exitX=0.5;exitY=0;exitDx=0;exitDy=0;" edge="1" parent="1" source="Tuzx2XnApIVHC-Wtf1-6-3" target="Tuzx2XnApIVHC-Wtf1-6-17">
          <mxGeometry width="50" height="50" relative="1" as="geometry">
            <mxPoint x="360" y="460" as="sourcePoint" />
            <mxPoint x="410" y="410" as="targetPoint" />
          </mxGeometry>
        </mxCell>
        <mxCell id="Tuzx2XnApIVHC-Wtf1-6-21" value="" style="endArrow=classic;startArrow=classic;html=1;entryX=0.5;entryY=1;entryDx=0;entryDy=0;exitX=0;exitY=0.25;exitDx=0;exitDy=0;" edge="1" parent="1" source="Tuzx2XnApIVHC-Wtf1-6-3" target="Tuzx2XnApIVHC-Wtf1-6-14">
          <mxGeometry width="50" height="50" relative="1" as="geometry">
            <mxPoint x="360" y="460" as="sourcePoint" />
            <mxPoint x="410" y="410" as="targetPoint" />
            <Array as="points">
              <mxPoint x="-42" y="440" />
            </Array>
          </mxGeometry>
        </mxCell>
        <mxCell id="Tuzx2XnApIVHC-Wtf1-6-22" value="" style="endArrow=classic;startArrow=classic;html=1;entryX=1;entryY=0.5;entryDx=0;entryDy=0;exitX=0.25;exitY=0;exitDx=0;exitDy=0;" edge="1" parent="1" source="Tuzx2XnApIVHC-Wtf1-6-3" target="Tuzx2XnApIVHC-Wtf1-6-15">
          <mxGeometry width="50" height="50" relative="1" as="geometry">
            <mxPoint x="360" y="460" as="sourcePoint" />
            <mxPoint x="410" y="410" as="targetPoint" />
            <Array as="points">
              <mxPoint x="260" y="460" />
              <mxPoint x="260" y="50" />
            </Array>
          </mxGeometry>
        </mxCell>
        <mxCell id="Tuzx2XnApIVHC-Wtf1-6-23" value="File Storage" style="rounded=1;whiteSpace=wrap;html=1;" vertex="1" parent="1">
          <mxGeometry x="-310" y="240" width="180" height="100" as="geometry" />
        </mxCell>
        <mxCell id="Tuzx2XnApIVHC-Wtf1-6-24" value="" style="endArrow=classic;startArrow=classic;html=1;exitX=1;exitY=0.75;exitDx=0;exitDy=0;entryX=0;entryY=0.25;entryDx=0;entryDy=0;" edge="1" parent="1" source="Tuzx2XnApIVHC-Wtf1-6-23" target="Tuzx2XnApIVHC-Wtf1-6-14">
          <mxGeometry width="50" height="50" relative="1" as="geometry">
            <mxPoint x="360" y="460" as="sourcePoint" />
            <mxPoint x="410" y="410" as="targetPoint" />
          </mxGeometry>
        </mxCell>
        <mxCell id="Tuzx2XnApIVHC-Wtf1-6-25" value="" style="endArrow=classic;startArrow=classic;html=1;entryX=0.25;entryY=1;entryDx=0;entryDy=0;exitX=1;exitY=0.25;exitDx=0;exitDy=0;" edge="1" parent="1" source="Tuzx2XnApIVHC-Wtf1-6-23" target="Tuzx2XnApIVHC-Wtf1-6-15">
          <mxGeometry width="50" height="50" relative="1" as="geometry">
            <mxPoint x="360" y="460" as="sourcePoint" />
            <mxPoint x="410" y="410" as="targetPoint" />
            <Array as="points" />
          </mxGeometry>
        </mxCell>
        <mxCell id="Tuzx2XnApIVHC-Wtf1-6-26" value="" style="endArrow=classic;startArrow=classic;html=1;exitX=0.5;exitY=1;exitDx=0;exitDy=0;entryX=0.104;entryY=1.015;entryDx=0;entryDy=0;entryPerimeter=0;" edge="1" parent="1" source="Tuzx2XnApIVHC-Wtf1-6-23" target="Tuzx2XnApIVHC-Wtf1-6-3">
          <mxGeometry width="50" height="50" relative="1" as="geometry">
            <mxPoint x="360" y="440" as="sourcePoint" />
            <mxPoint x="-150" y="550" as="targetPoint" />
          </mxGeometry>
        </mxCell>
        <mxCell id="Tuzx2XnApIVHC-Wtf1-6-29" value="" style="endArrow=classic;startArrow=classic;html=1;entryX=1;entryY=0.5;entryDx=0;entryDy=0;" edge="1" parent="1" source="Tuzx2XnApIVHC-Wtf1-6-23" target="Tuzx2XnApIVHC-Wtf1-6-13">
          <mxGeometry width="50" height="50" relative="1" as="geometry">
            <mxPoint x="-320" y="120" as="sourcePoint" />
            <mxPoint x="-270" y="70" as="targetPoint" />
          </mxGeometry>
        </mxCell>
      </root>
    </mxGraphModel>
  </diagram>
</mxfile>
